
        <svg xmlns="http://www.w3.org/2000/svg" xmlns:xlink="http://www.w3.org/1999/xlink" version="1.1" width="3162.2384933456597" height="820.2406943129054" viewBox="0 0 3162.2384933456597 820.2406943129054">
			
			<g transform="scale(8.11192466728299) translate(10, 10)">
				<defs id="SvgjsDefs2481"><linearGradient id="SvgjsLinearGradient2486"><stop id="SvgjsStop2487" stop-color="#ef4136" offset="0"/><stop id="SvgjsStop2488" stop-color="#fbb040" offset="1"/></linearGradient></defs><g id="SvgjsG2482" featureKey="hmhgWD-0" transform="matrix(0.7646760046977529,0,0,0.7646760046977529,-7.646754942214466,13.823934615746392)" fill="#000"><g xmlns="http://www.w3.org/2000/svg" transform="translate(0,-952.36218)"><path d="m 60.7828,964.36215 27.1809,0.8834 -27.1809,25.9958 z m -1.9745,1.4513 0,26.7845 -25.2681,0 c 8.6166,-8.7334 16.8796,-17.8103 25.2681,-26.7845 z m 27.7053,3.628 3.4864,1.1989 -12.5877,7.4768 z m -68.1835,2.9656 5.5226,0 12.8654,14.0705 -5.9854,6.1204 -12.4026,0 c 9e-4,-6.7347 0,-13.4597 0,-20.1909 z m -1.9746,1.2304 0,5.8364 -6.3555,0 z m 3.363,20.9796 38.627,0 -10.7675,29.43465 z m 39.0898,4.54286 0,41.20229 -12.5878,-6.8775 c 4.1972,-11.443 8.3886,-22.879 12.5878,-34.32479 z" style="text-indent:0;text-transform:none;direction:ltr;block-progression:tb;baseline-shift:baseline;color:;enable-background:accumulate;" fill-opacity="1" stroke="none" marker="none" visibility="visible" display="inline" overflow="visible"/></g></g><g id="SvgjsG2483" featureKey="1RRcwp-0" transform="matrix(2.774504755288467,0,0,2.774504755288467,78.11451383735199,15.239634225590049)" fill="#000"><path d="M9.94 20 l-2.52 0 l0 -4.9 c0 -1.08 -0.86 -1.92 -1.94 -1.92 c-1.04 0 -1.94 0.86 -1.94 1.92 l0 4.9 l-2.5 0 l0 -9.16 l2.5 0 l0 0.66 c0.62 -0.62 1.28 -0.84 1.94 -0.84 c1.2 0 2.32 0.46 3.16 1.28 c0.84 0.86 1.3 1.98 1.3 3.16 l0 4.9 z M15.02 20 l-2.6 0 l0 -9.16 l2.6 0 l0 9.16 z M13.719999999999999 9.74 c-0.86 0 -1.56 -0.7 -1.56 -1.54 c0 -0.42 0.16 -0.8 0.46 -1.08 c0.3 -0.3 0.68 -0.46 1.1 -0.46 c0.84 0 1.54 0.7 1.54 1.54 s-0.7 1.54 -1.54 1.54 z M28.299999999999997 20 l-3.18 0 l-2.46 -2.96 l-2.44 2.96 l-3.2 0 l4.1 -4.82 l-3.7 -4.34 l3.2 0 l2.04 2.46 l2.04 -2.46 l3.18 0 l-3.66 4.34 z M33.62 20.22 c-1.24 0 -2.46 -0.5 -3.4 -1.4 c-0.9 -0.94 -1.4 -2.16 -1.4 -3.4 c0 -1.26 0.5 -2.48 1.4 -3.4 c0.92 -0.88 2.12 -1.38 3.4 -1.38 c1.32 0 2.52 0.5 3.38 1.38 c0.92 0.92 1.42 2.12 1.42 3.4 s-0.5 2.48 -1.42 3.4 c-0.9 0.9 -2.1 1.4 -3.38 1.4 z M33.62 12.92 c-1.34 0 -2.44 1.12 -2.44 2.5 s1.1 2.5 2.44 2.5 c1.36 0 2.46 -1.12 2.46 -2.5 s-1.1 -2.5 -2.46 -2.5 z M49.059999999999995 20 l-2.52 0 l0 -4.9 c0 -1.08 -0.86 -1.92 -1.94 -1.92 c-1.04 0 -1.94 0.86 -1.94 1.92 l0 4.9 l-2.5 0 l0 -9.16 l2.5 0 l0 0.66 c0.62 -0.62 1.28 -0.84 1.94 -0.84 c1.2 0 2.32 0.46 3.16 1.28 c0.84 0.86 1.3 1.98 1.3 3.16 l0 4.9 z M57.31999999999999 20 l-2.4 0 c-0.88 0 -1.7 -0.34 -2.3 -0.94 c-0.62 -0.62 -0.94 -1.42 -0.94 -2.3 l0 -3.8 l-1.28 0 l0 -2.06 l1.28 0 l0 -3.6 l2.38 0 l0 3.6 l2.66 0 l0 2.06 l-2.66 0 l0 3.76 c0 0.5 0.44 0.96 0.88 0.96 l1.74 0 z M61.54 20 l-2.52 0 l0 -9.16 l2.52 0 l0 0.74 c0.72 -0.72 1.8 -0.96 2.52 -0.96 l0.6 0 l-0.6 2.5 l-0.38 0 c-1.18 0 -2.14 0.92 -2.14 2.02 l0 4.86 z M70.08 20.18 c-1.26 0 -2.46 -0.48 -3.38 -1.38 c-0.9 -0.92 -1.4 -2.12 -1.4 -3.38 s0.5 -2.46 1.4 -3.38 c0.9 -0.9 2.1 -1.38 3.38 -1.38 c0.84 0 1.6 0.3 2.26 0.9 l0.1 0.08 l0 -0.8 l2.42 0 l0 9.16 l-2.42 0 l0 -0.72 l-0.1 0.1 c-0.72 0.7 -1.54 0.8 -2.26 0.8 z M70.08 13 c-1.28 0 -2.36 1.12 -2.36 2.42 c0 1.32 1.08 2.42 2.36 2.42 s2.36 -1.1 2.36 -2.42 c0 -1.3 -1.08 -2.42 -2.36 -2.42 z M81.39999999999999 20.18 c-1.26 0 -2.46 -0.48 -3.38 -1.38 c-0.9 -0.92 -1.4 -2.12 -1.4 -3.38 s0.5 -2.46 1.4 -3.38 c0.9 -0.9 2.1 -1.38 3.38 -1.38 c0.84 0 1.6 0.3 2.26 0.9 l0.1 0.08 l0 -6.32 l2.42 0 l0 14.68 l-2.42 0 l0 -0.72 l-0.1 0.1 c-0.72 0.7 -1.54 0.8 -2.26 0.8 z M81.39999999999999 13 c-1.28 0 -2.36 1.12 -2.36 2.42 c0 1.32 1.08 2.42 2.36 2.42 s2.36 -1.1 2.36 -2.42 c0 -1.3 -1.08 -2.42 -2.36 -2.42 z M92.38 20.22 l-0.02 0 c-0.58 0 -1.18 -0.14 -1.74 -0.4 c-0.52 -0.22 -1 -0.58 -1.44 -1.04 c-0.7 -0.76 -1.12 -1.76 -1.22 -2.8 c-0.02 -0.18 -0.04 -0.36 -0.04 -0.56 c0 -0.4 0.06 -0.82 0.16 -1.24 c0.18 -0.8 0.56 -1.54 1.1 -2.1 c0.4 -0.44 0.86 -0.78 1.44 -1.06 c0.54 -0.26 1.14 -0.38 1.76 -0.38 c0.64 0 1.22 0.12 1.76 0.38 c0.6 0.28 1.08 0.64 1.44 1.06 c0.52 0.56 0.92 1.28 1.12 2.1 c0.1 0.38 0.14 0.78 0.14 1.24 l0 0.46 l-6.72 0 l0.02 0.14 c0.26 1.24 1.2 2.14 2.24 2.14 l0.02 0 c0.58 -0.04 1.22 -0.4 1.6 -0.72 l0.22 -0.18 l1.66 1.44 l-0.3 0.26 c-0.22 0.2 -0.5 0.44 -0.8 0.6 l-0.02 0 c-0.72 0.42 -1.5 0.64 -2.38 0.66 z M92.38 12.719999999999999 c-0.78 0 -1.56 0.54 -1.98 1.38 l-0.08 0.16 l4.14 0 l-0.08 -0.16 c-0.46 -0.86 -1.22 -1.38 -2 -1.38 z M101.73999999999998 20.08 c-0.28 0 -0.58 -0.04 -0.94 -0.1 c-1 -0.2 -1.94 -0.64 -2.68 -1.3 l-0.3 -0.24 l1.5 -1.66 l0.28 0.26 c0.88 0.74 1.6 0.88 2.06 0.88 c0.34 0 0.58 -0.04 0.82 -0.16 c0.3 -0.12 0.44 -0.32 0.44 -0.6 c0 -0.24 -0.14 -0.54 -1.32 -0.74 c-1.08 -0.22 -1.76 -0.44 -2.08 -0.62 c-0.42 -0.24 -0.76 -0.56 -1 -0.96 s-0.36 -0.84 -0.36 -1.34 c0 -0.52 0.16 -1.02 0.48 -1.48 c0.26 -0.38 0.64 -0.68 1.2 -0.96 c0.46 -0.22 0.98 -0.32 1.6 -0.32 c0.22 0 0.44 0.02 0.64 0.04 c0.88 0.14 1.76 0.52 2.48 1.08 l0.3 0.24 l-1.42 1.64 l-0.28 -0.22 c-0.7 -0.56 -1.3 -0.66 -1.66 -0.66 c-0.26 0 -0.5 0.04 -0.72 0.14 c-0.26 0.14 -0.4 0.36 -0.4 0.5 c0 0.28 0.2 0.48 1.24 0.72 c1.36 0.32 1.8 0.48 2.08 0.6 c0.56 0.32 0.8 0.58 1 0.84 c0.3 0.42 0.44 0.94 0.44 1.5 c0 0.58 -0.16 1.1 -0.46 1.52 s-0.7 0.78 -1.28 1.06 c-0.46 0.22 -1.06 0.34 -1.66 0.34 z"/></g>
			</g>
		</svg>
	