
        <svg xmlns="http://www.w3.org/2000/svg" xmlns:xlink="http://www.w3.org/1999/xlink" version="1.1" width="3187.5" height="1031.9267180421266" viewBox="0 0 3187.5 1031.9267180421266">
			
			<g transform="scale(9.375) translate(10, 10)">
				<defs id="SvgjsDefs2020"/><g id="SvgjsG2021" featureKey="symbolFeature-0" transform="matrix(2.083460828847743,0,0,2.083460828847743,0,-4.9669707471112625)" fill="#fff"><g xmlns="http://www.w3.org/2000/svg"><path d="M47.745,7.611h-7.076c-0.141,0-0.256,0.115-0.256,0.256v2.518H32.96C32.45,5.89,28.629,2.384,24,2.384   s-8.45,3.506-8.96,8.001H7.636c-0.017,0-0.032,0.009-0.049,0.01V7.867c0-0.141-0.115-0.256-0.256-0.256H0.255   C0.114,7.611,0,7.727,0,7.867v7.075c0,0.141,0.114,0.255,0.255,0.255h7.076c0.141,0,0.256-0.114,0.256-0.255v-2.525   c0.017,0.001,0.032,0.01,0.049,0.01h7.404c0.133,1.17,0.485,2.273,1.023,3.265c-0.113,0.079-0.212,0.182-0.287,0.307l-7.516,12.63   c-0.102,0.171-0.13,0.359-0.124,0.545H5.711c-0.141,0-0.256,0.115-0.256,0.256v7.074c0,0.141,0.115,0.255,0.256,0.255h7.076   c0.141,0,0.255-0.114,0.255-0.255v-7.074c0-0.141-0.114-0.256-0.255-0.256h-2.474l6.989-11.745c1.438,1.597,3.43,2.682,5.676,2.937   V38.03h-2.518c-0.141,0-0.255,0.115-0.255,0.256v7.075c0,0.141,0.114,0.255,0.255,0.255h7.076c0.141,0,0.256-0.114,0.256-0.255   v-7.075c0-0.141-0.115-0.256-0.256-0.256h-2.516V20.364c2.246-0.255,4.238-1.34,5.676-2.937l6.989,11.745h-2.474   c-0.141,0-0.255,0.115-0.255,0.256v7.074c0,0.141,0.114,0.255,0.255,0.255h7.076c0.141,0,0.256-0.114,0.256-0.255v-7.074   c0-0.141-0.115-0.256-0.256-0.256h-2.426c0.006-0.186-0.022-0.374-0.124-0.545l-7.516-12.63c-0.075-0.125-0.174-0.228-0.287-0.307   c0.538-0.991,0.891-2.095,1.023-3.265h7.453v2.516c0,0.141,0.115,0.255,0.256,0.255h7.076c0.141,0,0.255-0.114,0.255-0.255V7.867   C48,7.727,47.886,7.611,47.745,7.611z M24.406,15.696v1.456h-0.883v-1.413c-0.813-0.016-1.65-0.267-2.141-0.617l0.335-0.938   c0.504,0.335,1.233,0.602,2.018,0.602c0.994,0,1.664-0.574,1.664-1.374c0-0.767-0.545-1.242-1.581-1.663   c-1.429-0.561-2.311-1.206-2.311-2.424c0-1.16,0.825-2.043,2.113-2.251V5.657h0.869v1.359c0.842,0.027,1.413,0.253,1.819,0.489   L25.961,8.43c-0.294-0.166-0.869-0.478-1.765-0.478c-1.078,0-1.485,0.646-1.485,1.207c0,0.727,0.519,1.092,1.738,1.596   c1.441,0.586,2.168,1.316,2.168,2.561C26.617,14.421,25.849,15.459,24.406,15.696z"/></g></g><g id="SvgjsG2022" featureKey="nameFeature-0" transform="matrix(0.7264274105749191,0,0,0.7264274105749191,119.62225776035655,26.689670727843996)" fill="#fff"><path d="M0.52 40 c0 0 1.88 -2.4 1.88 -4.76 l0 -18.48 c0 -2.36 -1.88 -4.76 -1.88 -4.76 l11.44 0 s-0.32 1.96 0.88 4.76 l5.16 12.04 l0 -12.04 c0 -2.36 -1.88 -4.76 -1.88 -4.76 l10.96 0 s-1.88 2.4 -1.88 4.76 l0 18.48 c0 2.36 1.88 4.76 1.88 4.76 l-10.28 0 l-7.2 -16 l0 16 l-9.08 0 z M15.64 40 c0 0 0.27558 -1.9288 -0.97 -4.6932 l2.13 4.6932 l-1.16 0 z M28.12 40 c0 0 1.88 -2.4 1.88 -4.76 l0 -18.48 c0 -2.36 -1.88 -4.76 -1.88 -4.76 l11.76 0 s-1.88 2.4 -1.88 4.76 l0 18.48 c0 2.36 1.88 4.76 1.88 4.76 l-11.76 0 z M38.72560000000001 40 c0 0 2.5916 -1.5624 4.4812 -4.7632 l5.9136 -10.037 l-5.4216 -8.4388 c-2.0232 -3.1424 -4.7328 -4.7612 -4.7328 -4.7612 l11.788 0 s-0.6132 1.518 1.2268 4.77 l1.7388 3.07 l1.7384 -3.0696 c1.8408 -3.252 1.2272 -4.7704 1.2272 -4.7704 l11.788 0 s-2.7092 1.6188 -4.7324 4.7608 l-5.4216 8.4392 l5.9136 10.037 c1.8892 3.2004 4.4804 4.7628 4.4804 4.7628 l-10.314 0 l-4.68 -7.84 l-1.8344 3.0732 c-1.9344 3.244 -1.3716 4.7668 -1.3716 4.7668 l-11.788 0 z M56.926 39.999960938 c0 0 0.56404 -1.5248 -1.3752 -4.7732 l2.8496 4.7732 l-1.4744 0 z M81.48 40.56 c-7.32 0 -13.64 -3.6 -13.64 -14.56 c0 -9.4 5.52 -14.56 12.84 -14.56 s13.64 3.6 13.64 14.56 c0 9.44 -5.52 14.56 -12.84 14.56 z M81.24000000000001 34.76 c2.68 0 4.68 -3.12 4.68 -8.76 c0 -6.6 -2.32 -8.72 -5 -8.72 s-4.68 3.08 -4.68 8.72 c0 6.6 2.32 8.76 5 8.76 z M95.64 40 c0 0 1.88 -2.4 1.88 -4.76 l0 -18.48 c0 -2.36 -1.88 -4.76 -1.88 -4.76 l11.44 0 s-0.32 1.96 0.88 4.76 l5.16 12.04 l0 -12.04 c0 -2.36 -1.88 -4.76 -1.88 -4.76 l10.96 0 s-1.88 2.4 -1.88 4.76 l0 18.48 c0 2.36 1.88 4.76 1.88 4.76 l-10.28 0 l-7.2 -16 l0 16 l-9.08 0 z M110.76 40 c0 0 0.27558 -1.9288 -0.97 -4.6932 l2.13 4.6932 l-1.16 0 z M128.64 40 c0 0 1.88 -2.4 1.88 -4.76 l0 -16.84 l-2.44 0 c-2.36 0 -4.76 1.88 -4.76 1.88 l0 -8.28 l22.4 0 l0 8.28 s-2.4 -1.88 -4.76 -1.88 l-2.44 0 l0 16.84 c0 2.36 1.88 4.76 1.88 4.76 l-11.76 0 z M170.79999999999998 40.56 c-5.2 0 -10 -3.4 -10.76 -9.68 c-0.76 0.04 -2.6 0.08 -3.32 0.08 l0 4.28 c0 2.36 1.88 4.76 1.88 4.76 l-11.76 0 s1.88 -2.4 1.88 -4.76 l0 -18.48 c0 -2.36 -1.88 -4.76 -1.88 -4.76 l12.4 0 c6.6 0 12.24 2.72 12.24 8.92 c0 4.16 -2.08 6.84 -5.2 8.36 c0.12 3.44 3.76 4.36 6.4 2.64 l0 8.48 c-0.6 0.12 -1.24 0.16 -1.88 0.16 z M156.72 25.64 l1.4 0 c2.84 0 5 -1.4 5 -3.96 c0 -2.96 -2.44 -3.96 -5.28 -3.96 l-1.12 0 l0 7.92 z M172.69120999999998 40 c0 0 1.9932 -1.5804 3.0424 -4.7728 l6.0636 -18.454 c0.9864 -3.0024 0.41404 -4.7736 0.41404 -4.7736 l12.709 0 s-0.5724 1.7712 0.41404 4.7736 l0 0 l6.0636 18.454 c1.0492 3.1924 3.0424 4.7724 3.0424 4.7724 l-11.749 0 s1.4008 -1.644 0.51436 -4.72 l-9.28 0 c-0.8864 3.076 0.51436 4.72 0.51436 4.72 l-11.749 0 z M185.56599999999997 29.48 l6 0 l-3 -10.48 z M204.56 40 c0 0 1.84 -2.4 1.84 -4.76 l0 -18.48 c0 -2.36 -1.84 -4.76 -1.84 -4.76 l12.08 0 c7.32 0 14.04 3.44 14.04 14 c0 9.04 -5.92 14 -13.24 14 l-12.88 0 z M214.39999999999998 34.28 l1.32 0 c3.72 0 6.72 -2.92 6.72 -8.28 c0 -6.24 -2.6 -8.28 -6.32 -8.28 l-1.72 0 l0 16.56 z M232 40 c0 0 1.88 -2.36 1.88 -4.76 l0 -18.44 c0 -2.4 -1.88 -4.8 -1.88 -4.8 l21.48 0 l0 8.28 s-2.4 -1.88 -4.8 -1.88 l-6.8 0 l0 5.2 l2.8 0 c2.4 0 4.8 -1.88 4.8 -1.88 l0 9.36 s-2.4 -1.88 -4.8 -1.88 l-2.8 0 l0 4.4 l6.8 0 c2.4 0 4.8 -1.88 4.8 -1.88 l0 8.28 l-21.48 0 z M263.28 40.64 c-3.44 0 -8.2 -1.48 -8.2 -1.48 l2.8 -7.96 s1.88 3.8 5.2 3.8 c2.68 0 4.36 -1.16 4.36 -2.92 c0 -3.2 -11.76 -3.3984 -11.76 -11.52 c0 -5.96 4.92 -9.12 11.64 -9.12 c3.32 0 7.36 1.8 7.36 1.8 l-2.76 7.52 s-2.24 -3.96 -4.8 -3.96 c-2.16 0 -3.36 1.36 -3.36 2.68 c0 3.12 12.08 3.64 12.08 11.6 c0 5.92 -5.52 9.56 -12.56 9.56 z"/></g>
			</g>
		</svg>
	